<?xml version="1.0" encoding="UTF-8"?> <svg xmlns="http://www.w3.org/2000/svg" id="a" viewBox="0 0 85.6 185.24"><g id="b"><path d="M48.67,74.23c-1.19.18-5.29-1.68-6.17-2.03-7.18-2.92-10.7-4.09-16.13-4.2-2.43-.05-9.64,2.16-8.87,4.18.44,1.16,3.29,1.78,5.41,2,4.55.46,10.25.73,13.28.92,26.35,1.65,36.31,25.45,42.83,46.66.34,1.19.86,3.28.28,4.25-.55.48-1.29-.15-1.77-1.77-4.69-15.63-24.72-37.08-38.34-33.7-11.3,2.8,15.3,17.5,20.24,21.28,15.23,11.67,25.83,34.64,22.81,55.14-.48,1.01-1.37.38-1.38-3.98-.04-12.87-11.23-36.58-24.51-35.59-5.31.39,2.47,6.9,4.35,9,16.42,13.02,19.88,27.87,17.46,47.48.3,2.66,1.88.91,2.3-.81,9.26-27.72,4.37-55.13-1.7-83.06-4.16-18.79-14-43.26-10.8-65.35.76-4.94,1.56-12.17,6.47-18.11,3.45-3.67,12.63-12.81,9.08-15.11-9.18-5.94-19.3,7.78-22.43,17.47-8.87,27.43,10.24,59.04,15.82,85.94.14.69-.07,1-.43.2-10.97-24.36-16.04-31.85-27.76-52.44-4.55-7.99-6.97-22.76-4.75-31.84,2.64-10.82-5.68-9.28-9.94.15-1.63,3.6-1.17,7.88-.74,10.45,1.35,8.11,3.6,13.79,8.09,20.21,6.36,9.09,15.05,19.27,20.2,29.06.6,1.09,1.12,2.71-.42,1.18-13.02-13.3-36.76-41.37-56.62-35.1-3.26,1.23-5.86,3.37-3.75,5.54,3.36,3.24,11.47,6.69,19.41,7.95,9.55,1.52,25.22,9.27,28.8,13.15.15.17.19.88-.3.87Z" fill="#244419"></path></g></svg> 