<?xml version="1.0" encoding="UTF-8"?><svg id="b" xmlns="http://www.w3.org/2000/svg" viewBox="0 0 311.99 311.99"><g id="c"><rect width="311.99" height="311.99" rx="16.62" ry="16.62" fill="#244419"/><path d="M103.71,138.98c1.83,1.81,1.21-.11.5-1.41-6.12-11.64-16.45-23.73-24-34.53-5.33-7.62-8-14.37-9.61-24.01-.51-3.05-1.06-8.14.88-12.42,5.06-11.2,14.94-13.04,11.81-.18-2.63,10.79.24,28.34,5.65,37.84,13.93,24.47,19.95,33.37,32.99,62.31.43.95.68.58.52-.24-6.63-31.97-29.33-69.53-18.8-102.12,1.47-4.54,4.24-9.82,7.72-14.12h-53.79c-10.9,0-19.74,8.84-19.74,19.74v27.06c23.3-5.76,50.71,26.58,65.88,42.08Z" fill="#fff"/><path d="M254.19,65.53c-13.31-10.29-33.88-15.43-61.72-15.43h-63.24c-2.68,4.06-7.35,8.78-9.73,11.32-5.84,7.06-6.79,15.65-7.69,21.52-3.81,26.24,7.89,55.32,12.83,77.65,7.21,33.18,13.03,65.76,2.02,98.7-.5,2.04-2.38,4.13-2.73.96,2.88-23.31-1.24-40.95-20.75-56.42-2.24-2.5-11.48-10.23-5.17-10.7,15.78-1.17,29.08,27,29.13,42.3.02,5.18,1.07,5.92,1.64,4.73,3.59-24.36-9-51.65-27.1-65.52-5.86-4.49-37.48-21.95-24.05-25.28,16.18-4.01,39.99,21.48,45.56,40.05.58,1.93,1.45,2.67,2.11,2.1.69-1.16.07-3.64-.33-5.06-7.74-25.2-19.58-53.49-50.89-55.45-3.6-.22-10.37-.54-15.78-1.09-2.52-.25-5.91-.99-6.43-2.37-.9-2.41,7.66-5.03,10.55-4.97,6.45.12,10.63,1.51,19.17,4.99,1.04.42,5.91,2.63,7.33,2.42.58.01.54-.84.36-1.04-4.26-4.62-22.87-13.82-34.22-15.63-6.22-.99-12.49-3.11-17.21-5.54v154.12h69.93s33.28,0,33.28,0v-99.84h51.43c27.63,0,48.15-5.29,61.57-15.88,13.41-10.59,20.12-23.95,20.12-40.09s-6.66-30.25-19.97-40.54ZM228.02,141.77c-8.98,9.08-22.94,13.61-41.9,13.61h-45.08V57.06h45.08c18.96,0,32.93,4.49,41.9,13.46,8.97,8.98,13.46,20.83,13.46,35.55s-4.49,26.62-13.46,35.7Z" fill="#fff"/></g></svg>